<?xml version="1.0" encoding="UTF-8"?>
<svg id="Layer_1" data-name="Layer 1" xmlns="http://www.w3.org/2000/svg" viewBox="0 0 2000 340.81">
  <defs>
    <style>
      .cls-1 {
        fill: #fff;
      }
    </style>
  </defs>
  <path class="cls-1" d="M228.27,198.13c0-65.73-35.16-109.55-107.52-109.55S0,136.48,0,217.5s47.38,122.8,120.76,122.8c64.2,0,94.27-29.55,105.48-72.87l-46.88-13.24c-6.62,22.93-19.87,41.27-58.09,41.27-32.57,0-53.06-14.03-62.08-41.74-.03-.04-.09-.08-.1-.13-3.84-14.11-20.27-20.27-20.27-20.27l1.64-3.12,59.13.03h0s127.66,0,127.66,0c1.02-12.23,1.02-22.93,1.02-32.1ZM55.03,193.55c5.09-42.8,27.01-62.67,64.2-62.67s56.56,21.4,58.6,62.67H55.03Z"/>
  <path class="cls-1" d="M370.93,233.29h-7.13l-51.46,100.89h-60.13v-5.6l76.94-118.72-76.43-109.55v-5.6h62.16l55.54,98.85h6.12l51.97-98.85h57.58v5.6l-74.39,117.2,76.43,111.08v5.6h-61.65l-55.54-100.89Z"/>
  <path class="cls-1" d="M512.07,213.93c0-78.98,47.39-125.35,121.78-125.35s120.76,46.37,120.76,125.35-44.84,126.88-120.76,126.88-121.78-48.41-121.78-126.88ZM567.1,213.42c0,49.43,20.38,80,66.24,80s66.75-30.57,66.75-80-22.42-78.47-66.75-78.47-66.24,29.04-66.24,78.47Z"/>
  <path class="cls-1" d="M852.43,334.18h-54.52V94.7h53.5v63.19h4.59c13.25-44.33,43.82-69.3,84.07-69.3,49.94,0,73.88,33.63,73.88,85.6v159.99h-54.52v-145.73c0-29.04-12.74-50.44-45.86-50.44-36.69,0-61.15,24.45-61.15,60.63v135.54Z"/>
  <path class="cls-1" d="M1126.03,334.18l-88.66-239.48h59.62l29.55,92.74c10.7,34.14,21.91,67.26,31.08,99.87h10.19c9.17-32.61,20.38-66.75,31.08-99.87l29.55-92.74h58.09l-88.15,239.48h-72.35Z"/>
  <path class="cls-1" d="M1554.54,263.36l49.42-10.19c7.64,29.05,24.46,47.39,63.18,47.39,29.05,0,44.33-10.19,44.33-30.57,0-18.85-13.25-28.03-60.63-36.69-63.69-12.74-86.11-34.14-86.11-73.88,0-43.31,31.59-70.83,95.28-70.83s88.15,27.01,97.83,69.3l-49.42,10.7c-6.62-29.55-20.89-40.76-49.42-40.76s-42.29,10.7-42.29,28.53c0,16.81,10.19,28.53,55.54,36.69,70.83,13.24,92.23,37.2,92.23,74.9,0,44.33-29.55,72.87-98.34,72.87-77.45,0-102.92-31.59-111.59-77.45Z"/>
  <path class="cls-1" d="M1942.79,283.23c-11.72,3.57-22.42,6.12-34.65,6.12-23.95,0-32.61-12.23-32.61-35.67v-114.65h70.32v-44.33h-70.32V29.99h-55.03v64.71h-33.63v44.28l51.83-.02,1.64,3.12s-19.84,6.92-19.84,20.49v98.76c0,44.84,22.42,79.49,74.9,79.49,23.95,0,36.18-3.06,54.01-8.66l-6.62-48.92Z"/>
  <path class="cls-1" d="M1527.03,198.13c0-65.73-35.16-109.55-107.52-109.55s-120.76,47.9-120.76,128.92,47.38,122.8,120.76,122.8c64.2,0,94.27-29.55,105.48-72.87l-46.88-13.24c-6.62,22.93-19.87,41.27-58.09,41.27-32.57,0-53.06-14.03-62.08-41.74-.03-.04-.09-.08-.1-.13-3.84-14.11-20.27-20.27-20.27-20.27l1.64-3.12,59.13.03h0s127.66,0,127.66,0c1.02-12.23,1.02-22.93,1.02-32.1ZM1353.79,193.55c5.09-42.8,27.01-62.67,64.2-62.67s56.56,21.4,58.6,62.67h-122.8Z"/>
  <path class="cls-1" d="M1945.94,5.66h-9.6V0h26.13v5.66h-9.6v24.33h-6.94V5.66Z"/>
  <path class="cls-1" d="M1993.48,29.99l-.04-17.99-8.83,14.83h-3.13l-8.78-14.44v17.61h-6.51V0h5.74l11.23,18.64,11.05-18.64h5.7l.09,29.99h-6.52Z"/>
</svg>